<svg width="360" height="64" viewBox="0 0 360 64" fill="none" xmlns="http://www.w3.org/2000/svg">
<rect width="360" height="64" fill="#08415C"/>
<mask id="mask0" mask-type="alpha" maskUnits="userSpaceOnUse" x="0" y="0" width="360" height="64">
<rect width="360" height="64" fill="#08415C"/>
</mask>
<g mask="url(#mask0)">
<g opacity="0.05">
<path d="M223.923 124.057C194.863 124.057 171.882 108.381 149.653 93.2274C127.597 78.1844 104.78 62.6196 76.1254 62.6196C47.4613 62.6196 24.6535 78.1733 2.59818 93.2274C-9.23989 101.276 -21.4639 109.614 -34.4694 115.498L-35 113.954C-22.1007 108.115 -9.9249 99.8219 1.84563 91.7841C24.0746 76.6301 47.0561 60.9543 76.1158 60.9543C105.175 60.9543 128.157 76.6301 150.386 91.7841C172.441 106.827 195.259 122.381 223.913 122.381C252.568 122.381 275.385 106.827 297.44 91.7841C319.669 76.619 342.651 60.9543 371.711 60.9543V62.6196C343.046 62.6196 320.239 78.1733 298.183 93.2274C275.964 108.381 252.973 124.057 223.923 124.057Z" fill="#D4D4D4"/>
<path d="M223.923 112.877C194.863 112.877 171.882 97.2016 149.653 82.0476C127.597 67.0046 104.78 51.4509 76.1254 51.4509C47.4613 51.4509 24.6535 67.0046 2.59818 82.0476C-9.2206 90.1075 -21.4446 98.445 -34.4597 104.329L-35 102.786C-22.1007 96.9462 -9.9249 88.6532 1.84563 80.6154C24.0746 65.4503 47.0561 49.7856 76.1158 49.7856C105.175 49.7856 128.157 65.4614 150.386 80.6154C172.441 95.6584 195.259 111.223 223.913 111.223C252.568 111.223 275.385 95.6695 297.44 80.6154C319.669 65.4503 342.651 49.7856 371.711 49.7856V51.4509C343.046 51.4509 320.239 67.0046 298.183 82.0476C275.964 97.2127 252.973 112.877 223.923 112.877Z" fill="#D4D4D4"/>
<path d="M223.923 101.709C194.863 101.709 171.882 86.0332 149.653 70.8792C127.597 55.8363 104.78 40.2826 76.1254 40.2826C47.4613 40.2826 24.6535 55.8363 2.59818 70.8792C-9.2206 78.9392 -21.4446 87.2766 -34.4597 93.1606L-35 91.6064C-22.1007 85.7668 -9.9249 77.4737 1.84563 69.436C24.0746 54.282 47.0561 38.6062 76.1158 38.6062C105.175 38.6062 128.157 54.282 150.386 69.436C172.441 84.479 195.259 100.033 223.913 100.033C252.568 100.033 275.385 84.479 297.44 69.436C319.669 54.282 342.651 38.6062 371.711 38.6062V40.2715C343.046 40.2715 320.239 55.8251 298.183 70.8681C275.964 86.0332 252.973 101.709 223.923 101.709Z" fill="#D4D4D4"/>
<path d="M223.923 90.5406C194.863 90.5406 171.882 74.8648 149.653 59.7108C127.597 44.6678 104.78 29.1141 76.1254 29.1141C47.4613 29.1141 24.6535 44.6678 2.59818 59.7108C-9.2206 67.7707 -21.4446 76.1082 -34.4597 81.9922L-35 80.4379C-22.1007 74.5983 -9.9249 66.2942 1.84563 58.2675C24.0746 43.1135 47.0561 27.4377 76.1158 27.4377C105.175 27.4377 128.157 43.1135 150.386 58.2675C172.441 73.3105 195.259 88.8642 223.913 88.8642C252.568 88.8642 275.385 73.3105 297.44 58.2675C319.669 43.1024 342.651 27.4377 371.711 27.4377V29.103C343.046 29.103 320.239 44.6567 298.183 59.6997C275.964 74.8648 252.973 90.5406 223.923 90.5406Z" fill="#D4D4D4"/>
<path d="M223.923 79.3719C194.863 79.3719 171.882 63.6961 149.653 48.5421C127.597 33.4991 104.78 17.9454 76.1254 17.9454C47.4613 17.9454 24.6535 33.4991 2.59818 48.5421C-9.2206 56.602 -21.4446 64.9395 -34.4597 70.8235L-35 69.2692C-22.1007 63.4296 -9.9249 55.1366 1.84563 47.0988C24.0746 31.9448 47.0561 16.269 76.1158 16.269C105.175 16.269 128.157 31.9448 150.386 47.0988C172.441 62.1418 195.259 77.6955 223.913 77.6955C252.568 77.6955 275.385 62.1418 297.44 47.0988C319.669 31.9337 342.651 16.269 371.711 16.269V17.9343C343.046 17.9343 320.239 33.488 298.183 48.531C275.964 63.6961 252.973 79.3719 223.923 79.3719Z" fill="#D4D4D4"/>
<path d="M223.923 68.2039C194.863 68.2039 171.882 52.5281 149.653 37.3741C127.597 22.3311 104.78 6.77745 76.1254 6.77745C47.4613 6.77745 24.6535 22.3311 2.59818 37.3741C-9.2206 45.434 -21.4446 53.7715 -34.4597 59.6555L-35 58.1012C-22.1007 52.2617 -9.9249 43.9686 1.84563 35.9309C24.0746 20.7769 47.0561 5.10107 76.1158 5.10107C105.175 5.10107 128.157 20.7769 150.386 35.9309C172.441 50.9739 195.259 66.5386 223.913 66.5386C252.568 66.5386 275.385 50.985 297.44 35.9309C319.669 20.7658 342.651 5.10107 371.711 5.10107V6.76635C343.046 6.76635 320.239 22.32 298.183 37.363C275.964 52.5281 252.973 68.2039 223.923 68.2039Z" fill="#D4D4D4"/>
<path d="M223.923 57.0352C194.863 57.0352 171.882 41.3594 149.653 26.2054C127.597 11.1624 104.78 -4.39125 76.1254 -4.39125C47.4709 -4.39125 24.6535 11.1624 2.59818 26.2054C-9.2206 34.2653 -21.4446 42.6028 -34.4597 48.4868L-35 46.9325C-22.1007 41.093 -9.9249 32.7999 1.84563 24.7622C24.0746 9.60816 47.0561 -6.06763 76.1158 -6.06763C105.175 -6.06763 128.157 9.60816 150.386 24.7622C172.441 39.8051 195.259 55.3699 223.913 55.3699C252.568 55.3699 275.385 39.8162 297.44 24.7622C319.669 9.60816 342.651 -6.06763 371.711 -6.06763V-4.40235C343.046 -4.40235 320.239 11.1513 298.183 26.1943C275.964 41.3594 252.973 57.0352 223.923 57.0352Z" fill="#D4D4D4"/>
<path d="M223.923 45.8556C194.863 45.8556 171.882 30.1798 149.653 15.0258C127.597 -0.0171394 104.78 -15.5708 76.1254 -15.5708C47.4613 -15.5708 24.6535 -0.0171394 2.59818 15.0258C-9.2206 23.0858 -21.4446 31.4233 -34.4597 37.3072L-35 35.7641C-22.1007 29.9245 -9.9249 21.6314 1.84563 13.5937C24.0746 -1.56029 47.0561 -17.2361 76.1158 -17.2361C105.175 -17.2361 128.157 -1.56029 150.386 13.5937C172.441 28.6367 195.259 44.2015 223.913 44.2015C252.568 44.2015 275.385 28.6478 297.44 13.5937C319.669 -1.56029 342.651 -17.2361 371.711 -17.2361V-15.5708C343.046 -15.5708 320.239 -0.0171394 298.183 15.0258C275.964 30.1798 252.973 45.8556 223.923 45.8556Z" fill="#D4D4D4"/>
<path d="M223.923 34.6873C194.863 34.6873 171.882 19.0115 149.653 3.8575C127.597 -11.1855 104.78 -26.7392 76.1254 -26.7392C47.4613 -26.7392 24.6535 -11.1855 2.59818 3.8575C-9.23989 11.9174 -21.4639 20.2549 -34.4694 26.1389L-35 24.5846C-22.1007 18.7451 -9.9249 10.452 1.84563 2.41426C24.0746 -12.7397 47.0561 -28.4155 76.1158 -28.4155C105.175 -28.4155 128.157 -12.7397 150.386 2.41426C172.441 17.4572 195.259 33.0109 223.913 33.0109C252.568 33.0109 275.385 17.4572 297.44 2.41426C319.669 -12.7508 342.651 -28.4155 371.711 -28.4155V-26.7503C343.046 -26.7503 320.239 -11.1966 298.183 3.8464C275.964 19.0115 252.973 34.6873 223.923 34.6873Z" fill="#D4D4D4"/>
<path d="M223.923 23.5186C194.863 23.5186 171.882 7.8428 149.653 -7.3112C127.597 -22.3542 104.78 -37.9078 76.1254 -37.9078C47.4613 -37.9078 24.6535 -22.3542 2.59818 -7.3112C-9.23989 0.748734 -21.4639 9.08621 -34.4694 14.9702L-35 13.4159C-22.1007 7.57636 -9.9249 -0.727806 1.84563 -8.75443C24.0746 -23.9084 47.0561 -39.5842 76.1158 -39.5842C105.175 -39.5842 128.157 -23.9084 150.386 -8.75443C172.441 6.28855 195.259 21.8422 223.913 21.8422C252.568 21.8422 275.385 6.28855 297.44 -8.75443C319.669 -23.9084 342.651 -39.5842 371.711 -39.5842V-37.919C343.046 -37.919 320.239 -22.3653 298.183 -7.3223C275.964 7.8428 252.973 23.5186 223.923 23.5186Z" fill="#D4D4D4"/>
<path d="M223.923 12.3504C194.863 12.3504 171.882 -3.32541 149.653 -18.4794C127.597 -33.5224 104.78 -49.0761 76.1254 -49.0761C47.4613 -49.0761 24.6535 -33.5224 2.59818 -18.4794C-9.23989 -10.4195 -21.4639 -2.082 -34.4694 3.80197L-35 2.24771C-22.1007 -3.59185 -9.9249 -11.8849 1.84563 -19.9227C24.0746 -35.0767 47.0561 -50.7524 76.1158 -50.7524C105.175 -50.7524 128.157 -35.0767 150.386 -19.9227C172.441 -4.87967 195.259 10.674 223.913 10.674C252.568 10.674 275.385 -4.87967 297.44 -19.9227C319.669 -35.0878 342.651 -50.7524 371.711 -50.7524V-49.0872C343.046 -49.0872 320.239 -33.5335 298.183 -18.4905C275.964 -3.32541 252.973 12.3504 223.923 12.3504Z" fill="#D4D4D4"/>
<path d="M223.923 1.18168C194.863 1.18168 171.882 -14.4941 149.653 -29.6481C127.597 -44.6911 104.78 -60.2559 76.1254 -60.2559C47.4613 -60.2559 24.6535 -44.7022 2.59818 -29.6592C-9.23989 -21.5993 -21.4639 -13.2618 -34.4694 -7.37783L-35 -8.92099C-22.1007 -14.7606 -9.9249 -23.0536 1.84563 -31.0914C24.0746 -46.2454 47.0561 -61.9211 76.1158 -61.9211C105.175 -61.9211 128.157 -46.2454 150.386 -31.0914C172.441 -16.0484 195.259 -0.494701 223.913 -0.494701C252.568 -0.494701 275.385 -16.0484 297.44 -31.0914C319.669 -46.2454 342.651 -61.9211 371.711 -61.9211V-60.2559C343.046 -60.2559 320.239 -44.7022 298.183 -29.6481C275.964 -14.4941 252.973 1.18168 223.923 1.18168Z" fill="#D4D4D4"/>
</g>
</g>
</svg>
